<?xml version="1.0" encoding="UTF-8" standalone="no"?>
<!-- Created with Inkscape (http://www.inkscape.org/) -->

<svg
   width="153.37585mm"
   height="153.37585mm"
   viewBox="0 0 153.37585 153.37585"
   version="1.1"
   id="svg1"
   xml:space="preserve"
   inkscape:version="1.3.2 (091e20e, 2023-11-25)"
   sodipodi:docname="toshi-moto.svg"
   xmlns:inkscape="http://www.inkscape.org/namespaces/inkscape"
   xmlns:sodipodi="http://sodipodi.sourceforge.net/DTD/sodipodi-0.dtd"
   xmlns="http://www.w3.org/2000/svg"
   xmlns:svg="http://www.w3.org/2000/svg"><sodipodi:namedview
     id="namedview1"
     pagecolor="#ffffff"
     bordercolor="#000000"
     borderopacity="0.25"
     inkscape:showpageshadow="2"
     inkscape:pageopacity="0.0"
     inkscape:pagecheckerboard="0"
     inkscape:deskcolor="#d1d1d1"
     inkscape:document-units="mm"
     inkscape:zoom="0.87767061"
     inkscape:cx="205.65802"
     inkscape:cy="205.65802"
     inkscape:window-width="1408"
     inkscape:window-height="884"
     inkscape:window-x="3031"
     inkscape:window-y="134"
     inkscape:window-maximized="0"
     inkscape:current-layer="layer1"
     showgrid="false" /><defs
     id="defs1" /><g
     inkscape:label="Layer 1"
     inkscape:groupmode="layer"
     id="layer1"
     transform="translate(-0.76136239,-0.76136241)"><circle
       style="fill:#ff9500;fill-opacity:1;stroke:#ffffff;stroke-width:0.264583"
       id="path6"
       cx="77.449287"
       cy="77.449287"
       r="76.555634" /><g
       id="g2"
       transform="matrix(0.26458333,0,0,0.2770792,65.086924,26.662186)"
       style="fill:#ffffff">
	<g
   id="g1"
   style="fill:#ffffff">
		<path
   d="m 217.021,167.042 c 18.631,-9.483 30.288,-26.184 27.565,-54.007 C 240.919,75.012 208.06,62.262 166.58,58.631 L 166.572,5.89 h -32.139 l -0.009,51.354 c -8.456,0 -17.076,0.166 -25.657,0.338 L 108.76,5.897 76.65,5.894 76.644,58.622 c -6.959,0.142 -13.793,0.277 -20.466,0.277 v -0.156 l -44.33,-0.018 0.006,34.282 c 0,0 23.734,-0.446 23.343,-0.013 13.013,0.009 17.262,7.559 18.484,14.076 l 0.01,60.083 v 84.397 c -0.573,4.09 -2.984,10.625 -12.083,10.637 0.414,0.364 -23.379,-0.004 -23.379,-0.004 l -6.375,38.335 h 41.817 c 7.792,0.009 15.448,0.13 22.959,0.19 l 0.028,53.338 32.102,0.009 -0.009,-52.779 c 8.832,0.18 17.357,0.258 25.684,0.247 l -0.009,52.532 h 32.138 l 0.018,-53.249 c 54.022,-3.1 91.842,-16.697 96.544,-67.385 3.79,-40.809 -15.434,-59.025 -46.105,-66.379 z M 109.535,95.321 c 18.126,0 75.132,-5.767 75.14,32.064 -0.008,36.269 -56.996,32.032 -75.14,32.032 V 95.321 Z m -0.014,167.126 0.014,-70.672 c 21.778,-0.006 90.085,-6.261 90.094,35.32 0.009,39.876 -68.316,35.336 -90.108,35.352 z"
   id="path1"
   style="fill:#ffffff" />
	</g>
</g><g
       style="opacity:1;fill:#ffffff;fill-rule:nonzero;stroke:none;stroke-width:0;stroke-linecap:butt;stroke-linejoin:miter;stroke-miterlimit:10;stroke-dasharray:none"
       transform="matrix(0.74347917,0,0,0.74347917,10.79677,42.943505)"
       id="g5">
	<path
   d="M 87.994,0 H 69.342 C 67.555,0 66.66,2.16 67.924,3.424 l 5.795,5.795 -33.82,33.82 -11.843,-11.843 -3.174,-3.174 c -1.074,-1.074 -2.815,-1.074 -3.889,0 L 0.805,48.209 c -1.074,1.074 -1.074,2.815 0,3.889 l 3.174,3.174 c 1.074,1.074 2.815,1.074 3.889,0 L 22.937,40.203 37.931,55.197 c 1.074,1.074 2.815,1.074 3.889,0 l 1.614,-1.614 c 0.083,-0.066 0.17,-0.125 0.247,-0.202 l 37.1,-37.1 5.795,5.795 C 87.84,23.34 90,22.445 90,20.658 V 2.006 C 90,0.898 89.102,0 87.994,0 Z"
   style="opacity:1;fill:#ffffff;fill-rule:nonzero;stroke:none;stroke-width:1;stroke-linecap:butt;stroke-linejoin:miter;stroke-miterlimit:10;stroke-dasharray:none"
   stroke-linecap="round"
   id="path1-0" />
	<path
   d="m 65.626,37.8 v 49.45 c 0,1.519 1.231,2.75 2.75,2.75 h 8.782 c 1.519,0 2.75,-1.231 2.75,-2.75 V 23.518 Z"
   style="opacity:1;fill:#ffffff;fill-rule:nonzero;stroke:none;stroke-width:1;stroke-linecap:butt;stroke-linejoin:miter;stroke-miterlimit:10;stroke-dasharray:none"
   stroke-linecap="round"
   id="path2" />
	<path
   d="M 47.115,56.312 V 87.25 c 0,1.519 1.231,2.75 2.75,2.75 h 8.782 c 1.519,0 2.75,-1.231 2.75,-2.75 V 42.03 Z"
   style="opacity:1;fill:#ffffff;fill-rule:nonzero;stroke:none;stroke-width:1;stroke-linecap:butt;stroke-linejoin:miter;stroke-miterlimit:10;stroke-dasharray:none"
   stroke-linecap="round"
   id="path3" />
	<path
   d="m 39.876,60.503 c -1.937,0 -3.757,-0.754 -5.127,-2.124 L 28.603,52.234 V 87.25 c 0,1.519 1.231,2.75 2.75,2.75 h 8.782 c 1.519,0 2.75,-1.231 2.75,-2.75 V 59.844 c -0.933,0.427 -1.952,0.659 -3.009,0.659 z"
   style="opacity:1;fill:#ffffff;fill-rule:nonzero;stroke:none;stroke-width:1;stroke-linecap:butt;stroke-linejoin:miter;stroke-miterlimit:10;stroke-dasharray:none"
   stroke-linecap="round"
   id="path4" />
	<path
   d="M 22.937,46.567 11.051,58.453 c -0.298,0.298 -0.621,0.562 -0.959,0.8 V 87.25 c 0,1.519 1.231,2.75 2.75,2.75 h 8.782 c 1.519,0 2.75,-1.231 2.75,-2.75 V 48.004 Z"
   style="opacity:1;fill:#ffffff;fill-rule:nonzero;stroke:none;stroke-width:1;stroke-linecap:butt;stroke-linejoin:miter;stroke-miterlimit:10;stroke-dasharray:none"
   stroke-linecap="round"
   id="path5" />
</g></g></svg>
