<svg width="64" height="64" viewBox="0 0 153.376 153.376" xml:space="preserve" xmlns="http://www.w3.org/2000/svg">
  <g transform="translate(-.761 -.761)">
    <circle style="fill:#ff9500;fill-opacity:1;stroke:#fff;stroke-width:.264583" cx="77.449" cy="77.449" r="76.556"/>
    <path d="M217.021 167.042c18.631-9.483 30.288-26.184 27.565-54.007-3.667-38.023-36.526-50.773-78.006-54.404l-.008-52.741h-32.139l-.009 51.354c-8.456 0-17.076.166-25.657.338l-.007-51.685-32.11-.003-.006 52.728c-6.959.142-13.793.277-20.466.277v-.156l-44.33-.018.006 34.282s23.734-.446 23.343-.013c13.013.009 17.262 7.559 18.484 14.076l.01 60.083v84.397c-.573 4.09-2.984 10.625-12.083 10.637.414.364-23.379-.004-23.379-.004l-6.375 38.335h41.817c7.792.009 15.448.13 22.959.19l.028 53.338 32.102.009-.009-52.779c8.832.18 17.357.258 25.684.247l-.009 52.532h32.138l.018-53.249c54.022-3.1 91.842-16.697 96.544-67.385 3.79-40.809-15.434-59.025-46.105-66.379zM109.535 95.321c18.126 0 75.132-5.767 75.14 32.064-.008 36.269-56.996 32.032-75.14 32.032V95.321Zm-.014 167.126.014-70.672c21.778-.006 90.085-6.261 90.094 35.32.009 39.876-68.316 35.336-90.108 35.352z" style="fill:#fff" transform="matrix(.26458 0 0 .27708 67.204 25.075)"/>
    <g style="opacity:1;fill:#fff;fill-rule:nonzero;stroke:none;stroke-width:0;stroke-linecap:butt;stroke-linejoin:miter;stroke-miterlimit:10;stroke-dasharray:none">
      <path d="M87.994 0H69.342c-1.787 0-2.682 2.16-1.418 3.424l5.795 5.795-33.82 33.82-11.843-11.843-3.174-3.174a2.75 2.75 0 0 0-3.889 0L.805 48.209a2.75 2.75 0 0 0 0 3.889l3.174 3.174a2.75 2.75 0 0 0 3.889 0l15.069-15.069 14.994 14.994a2.75 2.75 0 0 0 3.889 0l1.614-1.614c.083-.066.17-.125.247-.202l37.1-37.1 5.795 5.795C87.84 23.34 90 22.445 90 20.658V2.006A2.006 2.006 0 0 0 87.994 0Z" style="opacity:1;fill:#fff;fill-rule:nonzero;stroke:none;stroke-width:1;stroke-linecap:butt;stroke-linejoin:miter;stroke-miterlimit:10;stroke-dasharray:none" transform="matrix(.74348 0 0 .74348 12.913 41.356)"/>
      <path d="M65.626 37.8v49.45a2.75 2.75 0 0 0 2.75 2.75h8.782a2.75 2.75 0 0 0 2.75-2.75V23.518ZM47.115 56.312V87.25a2.75 2.75 0 0 0 2.75 2.75h8.782a2.75 2.75 0 0 0 2.75-2.75V42.03ZM39.876 60.503a7.202 7.202 0 0 1-5.127-2.124l-6.146-6.145V87.25a2.75 2.75 0 0 0 2.75 2.75h8.782a2.75 2.75 0 0 0 2.75-2.75V59.844a7.212 7.212 0 0 1-3.009.659zM22.937 46.567 11.051 58.453a7.265 7.265 0 0 1-.959.8V87.25a2.75 2.75 0 0 0 2.75 2.75h8.782a2.75 2.75 0 0 0 2.75-2.75V48.004Z" style="opacity:1;fill:#fff;fill-rule:nonzero;stroke:none;stroke-width:1;stroke-linecap:butt;stroke-linejoin:miter;stroke-miterlimit:10;stroke-dasharray:none" transform="matrix(.74348 0 0 .74348 12.913 41.356)"/>
    </g>
  </g>
</svg>
